# Blender3D v249 OBJ File: concreteABarrier.blend
# www.blender3d.org
mtllib concreteABarrier.mtl
v 0.000000 0.028913 0.000000
v -0.000000 1.244599 -0.000001
v 0.485092 0.211770 -0.000000
v 0.245630 0.819613 -0.000001
v -0.000000 0.211770 -2.797532
v -0.000000 0.819612 -2.797533
v -0.485092 0.211770 0.000001
v -0.245630 0.819613 0.000000
v -0.000000 0.819613 2.797532
v 0.000000 0.211770 2.797533
v 0.594738 0.032140 -0.000000
v 0.000000 0.028913 2.797533
v -0.000000 0.028913 -2.797532
v -0.594738 0.032140 0.000001
v 0.128375 1.232932 -0.000002
v -0.000000 1.244599 2.797532
v -0.000000 1.244599 -2.797533
v -0.128376 1.232932 0.000000
v 0.485092 0.211770 2.797532
v 0.245630 0.819613 2.797532
v 0.485092 0.211770 -2.797533
v 0.245630 0.819612 -2.797534
v -0.485092 0.211770 -2.797532
v -0.245630 0.819612 -2.797532
v -0.485092 0.211770 2.797533
v -0.245630 0.819613 2.797533
v 0.363961 0.455159 -0.000001
v -0.000000 0.394626 -2.797533
v -0.363961 0.455159 0.000001
v 0.000000 0.394627 2.797533
v 0.597512 0.031526 2.757565
v 0.597512 0.031526 -2.757565
v -0.597512 0.031526 -2.757564
v -0.597511 0.031526 2.757565
v 0.127962 1.235188 2.735582
v 0.127962 1.235188 -2.735585
v -0.127963 1.235188 -2.735583
v -0.127963 1.235188 2.735583
v 0.362562 0.394627 2.797532
v 0.362562 0.394626 -2.797533
v -0.362562 0.394626 -2.797532
v -0.362561 0.394627 2.797533
vn -0.000001 0.000001 -1.000000
vn -0.000002 -0.000000 -1.000000
vn -0.000001 -0.000001 -1.000000
vn 0.066462 0.176317 -0.982087
vn -0.000000 -0.000001 -1.000000
vn -0.066464 0.176316 -0.982087
vn -0.000001 -0.000000 -1.000000
vn -0.000000 -0.000002 -1.000000
vn -0.000003 -0.147439 -0.989071
vn 0.435739 -0.000000 -0.900073
vn -0.000003 -0.000001 -1.000000
vn -0.000002 -0.000001 -1.000000
vn -0.435747 -0.000001 -0.900069
vn -0.000002 -0.147441 -0.989071
vn 0.951123 -0.308812 -0.000000
vn 0.964152 -0.265278 -0.006222
vn 0.962037 -0.272920 0.000080
vn 0.962175 -0.272434 -0.000000
vn 0.962037 -0.272920 -0.000080
vn 0.964152 -0.265278 0.006222
vn 0.848491 -0.529209 -0.000000
vn 0.853552 -0.521006 0.000742
vn 0.895209 -0.445531 -0.010088
vn 0.830735 -0.556668 -0.000000
vn 0.895209 -0.445531 0.010088
vn 0.853552 -0.521006 -0.000743
vn 0.000005 0.000001 1.000000
vn 0.000001 -0.000001 1.000000
vn 0.435751 0.000001 0.900067
vn 0.000005 -0.147441 0.989071
vn 0.000004 -0.147437 0.989071
vn -0.435735 0.000000 0.900075
vn 0.000004 0.000001 1.000000
vn 0.000002 0.000002 1.000000
vn 0.000000 -0.000000 1.000000
vn 0.066463 0.176317 0.982087
vn 0.000001 0.000001 1.000000
vn 0.000001 0.000003 1.000000
vn 0.000002 0.000001 1.000000
vn 0.000001 -0.000000 1.000000
vn -0.066463 0.176318 0.982087
vn -0.951123 -0.308812 0.000000
vn -0.964152 -0.265279 0.006222
vn -0.962037 -0.272920 -0.000080
vn -0.962174 -0.272434 0.000000
vn -0.962037 -0.272920 0.000080
vn -0.964152 -0.265279 -0.006222
vn -0.848491 -0.529209 0.000000
vn -0.853552 -0.521007 -0.000742
vn -0.895209 -0.445532 0.010088
vn -0.830735 -0.556668 0.000000
vn -0.895209 -0.445532 -0.010088
vn -0.853552 -0.521007 0.000743
vn -0.073346 -0.997307 0.000000
vn -0.090502 -0.995896 -0.000807
vn 0.090502 -0.995896 -0.000807
vn 0.073346 -0.997307 0.000000
vn 0.073347 -0.997307 0.000000
vn 0.090502 -0.995896 0.000807
vn -0.090502 -0.995896 0.000807
vn -0.073347 -0.997307 0.000000
vn 0.005426 0.999985 0.000228
vn 0.004372 0.999990 -0.000000
vn 0.005426 0.999985 -0.000228
vn -0.005426 0.999985 -0.000228
vn -0.004372 0.999990 -0.000000
vn -0.005426 0.999985 0.000228
usemtl Material
s off
f 10//1 25//1 42//1
f 10//2 42//2 30//2
f 10//3 12//3 25//3
f 12//4 34//4 25//4
f 10//5 19//5 12//5
f 19//6 31//6 12//6
f 10//7 30//7 39//7
f 10//8 39//8 19//8
f 9//9 26//9 38//9
f 9//10 38//10 16//10
f 9//11 30//11 26//11
f 30//12 42//12 26//12
f 9//12 20//12 30//12
f 20//3 39//3 30//3
f 9//13 16//13 35//13
f 9//14 35//14 20//14
f 8//15 26//15 29//15
f 26//16 42//16 29//16
f 8//17 18//17 38//17
f 8//18 38//18 26//18
f 8//18 24//18 37//18
f 8//19 37//19 18//19
f 8//15 29//15 24//15
f 29//20 41//20 24//20
f 7//21 25//21 34//21
f 7//22 34//22 14//22
f 7//23 29//23 42//23
f 7//24 42//24 25//24
f 7//24 23//24 41//24
f 7//25 41//25 29//25
f 7//26 14//26 33//26
f 7//21 33//21 23//21
f 6//27 24//27 28//27
f 24//28 41//28 28//28
f 6//29 17//29 37//29
f 6//30 37//30 24//30
f 6//31 22//31 36//31
f 6//32 36//32 17//32
f 6//33 28//33 22//33
f 28//34 40//34 22//34
f 5//35 23//35 13//35
f 23//36 33//36 13//36
f 5//37 28//37 41//37
f 5//35 41//35 23//35
f 5//38 21//38 40//38
f 5//39 40//39 28//39
f 5//40 13//40 21//40
f 13//41 32//41 21//41
f 4//42 22//42 27//42
f 22//43 40//43 27//43
f 4//44 15//44 36//44
f 4//45 36//45 22//45
f 4//45 20//45 35//45
f 4//46 35//46 15//46
f 4//42 27//42 20//42
f 27//47 39//47 20//47
f 3//48 21//48 32//48
f 3//49 32//49 11//49
f 3//50 27//50 40//50
f 3//51 40//51 21//51
f 3//51 19//51 39//51
f 3//52 39//52 27//52
f 3//53 11//53 31//53
f 3//48 31//48 19//48
f 2//54 17//54 36//54
f 2//55 36//55 15//55
f 2//56 18//56 37//56
f 2//57 37//57 17//57
f 2//58 16//58 38//58
f 2//59 38//59 18//59
f 2//60 15//60 35//60
f 2//61 35//61 16//61
f 1//62 14//62 34//62
f 1//63 34//63 12//63
f 1//63 13//63 33//63
f 1//64 33//64 14//64
f 1//65 11//65 32//65
f 1//66 32//66 13//66
f 1//66 12//66 31//66
f 1//67 31//67 11//67
