# This file uses centimeters as units for non-parametric coordinates.

mtllib openbox.mtl
g default
v 0.193680 0.000000 -0.193725
v 0.193680 0.000000 0.193725
v -0.193680 0.000000 0.193725
v -0.193680 0.000000 -0.193725
v 0.193680 0.274308 -0.193725
v 0.193680 0.274308 0.193725
v -0.193680 0.274308 0.193725
v -0.193680 0.274308 -0.193725
v 0.193680 0.403779 0.346621
v -0.193680 0.403779 0.346621
v -0.193680 0.399164 -0.346621
v 0.193680 0.399164 -0.346621
v -0.361654 0.393927 0.193725
v -0.361654 0.393927 -0.193725
v 0.383656 0.390462 -0.193725
v 0.383656 0.390462 0.193725
vt 0.000000 0.000000
vt 1.000000 0.000000
vt 1.000000 1.000000
vt 0.000000 1.000000
vt 0.000000 0.000000
vt 1.000000 0.000000
vt 1.000000 1.000000
vt 0.000000 1.000000
vt 0.000000 0.000000
vt 1.000000 0.000000
vt 1.000000 1.000000
vt 0.000000 1.000000
vt 0.000000 0.000000
vt 1.000000 0.000000
vt 1.000000 1.000000
vt 0.000000 1.000000
vn 0.000000 0.000000 -1.000000
vn 0.000000 0.000000 -1.000000
vn 0.000000 0.000000 -1.000000
vn 0.000000 0.000000 -1.000000
vn 0.000000 0.000000 -1.000000
vn 0.000000 0.000000 -1.000000
vn -1.000000 0.000000 0.000000
vn -1.000000 0.000000 0.000000
vn -1.000000 0.000000 0.000000
vn -1.000000 0.000000 0.000000
vn -1.000000 0.000000 0.000000
vn -1.000000 0.000000 0.000000
vn 0.000000 0.000000 1.000000
vn 0.000000 0.000000 1.000000
vn 0.000000 0.000000 1.000000
vn 0.000000 0.000000 1.000000
vn 0.000000 0.000000 1.000000
vn 0.000000 0.000000 1.000000
vn 1.000000 -0.000000 0.000000
vn 1.000000 -0.000000 0.000000
vn 1.000000 -0.000000 0.000000
vn 1.000000 -0.000000 0.000000
vn 1.000000 -0.000000 0.000000
vn 1.000000 -0.000000 0.000000
vn 0.000000 -1.000000 0.000000
vn 0.000000 -1.000000 0.000000
vn 0.000000 -1.000000 0.000000
vn 0.000000 -1.000000 0.000000
vn 0.000000 -1.000000 0.000000
vn 0.000000 -1.000000 0.000000
vn 0.000000 -0.763144 0.646228
vn 0.000000 -0.763144 0.646228
vn 0.000000 -0.763144 0.646228
vn 0.000000 -0.763144 0.646228
vn 0.000000 -0.774555 -0.632507
vn 0.000000 -0.774555 -0.632507
vn 0.000000 -0.774555 -0.632507
vn 0.000000 -0.774555 -0.632507
vn -0.580074 -0.814563 0.000000
vn -0.580074 -0.814563 0.000000
vn -0.580074 -0.814563 0.000000
vn -0.580074 -0.814563 0.000000
vn 0.521636 -0.853168 0.000000
vn 0.521636 -0.853168 0.000000
vn 0.521636 -0.853168 0.000000
vn 0.521636 -0.853168 0.000000
s off
g box:Mesh
usemtl box:Material
f 5//1 1//2 4//3
f 5//4 4//5 8//6
f 3//7 7//8 8//9
f 3//10 8//11 4//12
f 2//13 6//14 3//15
f 6//16 7//17 3//18
f 1//19 5//20 2//21
f 5//22 6//23 2//24
f 1//25 2//26 3//27
f 1//28 3//29 4//30
f 7/1/31 6/2/32 9/3/33 10/4/34
f 5/5/35 8/6/36 11/7/37 12/8/38
f 8/9/39 7/10/40 13/11/41 14/12/42
f 6/13/43 5/14/44 15/15/45 16/16/46
