# Blender3D v249 OBJ File: racksDouble103.blend
# www.blender3d.org
mtllib racksDouble103.mtl
v 0.479410 -0.050900 -0.514761
v 0.479410 -0.050900 0.515239
v -0.480590 -0.050900 0.515239
v -0.480590 -0.050900 -0.514761
v 0.479410 4.049099 -0.514761
v 0.479409 4.049100 0.515239
v -0.480590 4.049100 0.515238
v -0.480590 4.049099 -0.514761
vt 0.000000 0.000000
vt 1.000000 0.000000
vt 1.000000 1.000000
vt 0.000000 1.000000
vn 0.000000 0.000000 -1.000000
vn -1.000000 -0.000000 -0.000000
vn -0.000000 -0.000000 1.000000
vn 1.000000 -0.000000 0.000000
vn 1.000000 0.000000 0.000001
vn 0.000000 1.000000 -0.000000
vn -0.000000 -1.000000 0.000000
usemtl Grey
s off
f 5/1/1 1/2/1 4/3/1
f 5/1/1 4/3/1 8/4/1
f 3/1/2 7/2/2 8/3/2
f 3/1/2 8/3/2 4/4/2
f 2/1/3 6/2/3 3/4/3
f 6/2/3 7/3/3 3/4/3
f 1/1/4 5/2/4 2/4/4
f 5/2/5 6/3/5 2/4/5
f 5/1/6 8/2/6 6/4/6
f 8/2/6 7/3/6 6/4/6
f 1/1/7 2/2/7 3/3/7
f 1/1/7 3/3/7 4/4/7
