# Blender3D v249 OBJ File: orangetrashcan.blend
# www.blender3d.org
mtllib orangetrashcan.mtl
v 0.900000 -0.100000 -1.000000
v 0.900000 -0.100000 1.000000
v -1.000000 0.000000 1.000000
v -1.000000 -0.000000 -1.000000
v 1.000000 1.000000 -1.000000
v 0.999999 1.000000 1.000001
v -2.000000 1.000000 1.000000
v -2.000000 1.000000 -1.000000
v 1.200001 1.000000 -1.000000
v 1.199999 1.000000 1.000001
v 1.199999 0.900000 1.000001
v 1.200001 0.900000 -1.000000
v -2.100000 1.000000 1.000000
v -2.100000 1.000000 -1.000000
v -2.100000 0.900000 1.000000
v -2.100000 0.900000 -1.000000
v 0.999999 1.000000 1.100001
v -2.000000 1.000000 1.100000
v 1.199999 1.000000 1.100001
v -2.100000 1.000000 1.100000
v -2.000000 0.900000 1.100000
v 0.999999 0.900000 1.100001
v 1.199999 0.900000 1.100001
v -2.100000 0.900000 1.100000
v -2.100000 0.900000 1.000000
v -2.100000 0.900000 1.100000
v 1.000000 1.000000 -1.099999
v -2.000000 1.000000 -1.100000
v 1.200001 1.000000 -1.099999
v -2.100000 1.000000 -1.100000
v -2.000000 0.900000 -1.100000
v 1.000000 0.900000 -1.099999
v 1.200001 0.900000 -1.099999
v -2.100000 0.900000 -1.100000
v -1.000000 0.000000 1.000000
v -1.000000 0.000000 1.000000
v 0.896264 -0.163141 0.954302
v -0.943245 -0.063442 0.954302
v -0.943245 -0.063442 0.954302
v 0.898648 -0.163141 0.954302
v -1.000000 0.000000 1.000000
v 0.900000 -0.100000 1.000000
v 0.900000 -0.100000 1.000000
v -1.000000 0.000000 1.000000
v 0.898648 -0.163141 0.954302
v -0.943245 -0.063442 0.954302
v -0.943245 -0.063442 0.954302
v 0.898648 -0.163141 0.954302
v -1.000000 0.000000 1.000000
v 0.900000 -0.100000 1.000000
v 0.898648 -0.163141 0.954302
v -0.943245 -0.063442 0.954302
v -0.943245 -0.063442 0.954302
v 0.898648 -0.163141 0.954302
v -0.270492 -0.737612 0.954302
v 0.846195 -0.737571 0.954302
v 0.846195 -0.737571 0.954302
v -0.270492 -0.737612 0.954302
v 0.898648 -0.163141 0.954302
v -0.943245 -0.063442 0.954302
v -0.943245 -0.063442 0.954302
v 0.898648 -0.163141 0.954302
v -0.943245 -0.063442 0.954302
v 0.896264 -0.163141 0.954302
v 0.896264 -0.163141 0.954302
v -0.943245 -0.063442 0.954302
v 0.898648 -0.163141 0.954302
v -0.943245 -0.063442 0.954302
v -0.943245 -0.063442 0.954302
v 0.898648 -0.163141 0.954302
v -0.270492 -0.737612 0.954302
v 0.846195 -0.737571 0.954302
v -0.943245 -0.063442 0.954302
v 0.896264 -0.163141 0.954302
v -1.000000 0.000000 1.000000
v 0.900000 -0.100000 1.000000
v 0.900000 -0.100000 -1.000000
v -1.000000 -0.000000 -1.000000
v 0.896264 -0.163141 -0.954302
v -0.943245 -0.063442 -0.954302
v 0.846195 -0.737571 -0.954302
v -0.270492 -0.737612 -0.954302
v 0.898648 -0.163141 -0.954302
v -0.943245 -0.063442 -0.954302
v -0.943245 -0.063442 -0.954302
v 0.898648 -0.163141 -0.954302
v -0.943245 -0.063442 -0.954302
v 0.896264 -0.163141 -0.954302
v 0.898648 -0.163141 0.954302
v 0.846195 -0.737571 0.954302
v -0.270492 -0.737612 -0.954302
v -0.270492 -0.737612 0.954302
v 0.846195 -0.737571 -0.181317
v -0.943245 -0.063442 -0.181317
v -0.270492 -0.737612 -0.181317
v -0.266633 -0.737612 0.166015
v 0.850054 -0.737571 0.166015
v 0.314044 -0.737591 0.166015
v 0.310185 -0.737591 0.954302
v 0.313497 -0.737591 -0.181317
v 0.314044 -0.737591 0.166015
v 0.313497 -0.737591 -0.181317
v 0.314044 -0.437591 0.166015
v 0.313497 -0.437591 -0.181317
v 0.313497 -0.437591 -0.181317
v 0.314044 -0.437591 0.166015
v 0.873347 -0.437591 -0.181317
v 0.873894 -0.437591 0.166015
vn -0.000000 -0.000000 -1.000000
vn 0.000000 -1.000000 -0.000000
vn 0.000000 0.000000 0.000000
vn 0.999999 0.000000 -0.001574
vn 0.000037 -1.000000 -0.000000
vn -0.707851 -0.706362 0.000000
vn 0.745293 0.666737 0.000000
vn 0.745291 0.666740 -0.000000
vn -0.996223 0.086834 -0.000000
vn -0.999771 0.021409 -0.000000
vn -0.998199 0.059971 0.001247
vn 0.000000 0.000002 -1.000000
vn 0.000000 0.000000 1.000000
vn 0.031721 0.602707 0.797332
vn 0.031694 0.584773 0.810578
vn -0.031721 -0.602707 0.797332
vn -0.031694 -0.584773 0.810578
vn 0.000000 -0.000002 -1.000000
vn -0.031696 -0.585559 0.810010
vn -1.000000 0.000000 0.000000
vn 1.000000 0.000000 0.000000
vn -1.000000 0.000000 -0.000001
vn 0.000000 0.000001 -1.000000
vn -0.707107 -0.707107 -0.000000
vn -0.000000 -0.000001 1.000000
vn 0.995893 -0.090536 0.000000
vn 0.995893 -0.090535 0.000001
usemtl Chocolate
s off
f 93//1 100//1 104//1
f 93//1 104//1 107//1
f 97//1 98//1 103//1
f 97//1 103//1 108//1
f 106//2 105//2 107//2
f 106//2 107//2 108//2
f 103//3 104//3 105//3
f 103//3 105//3 106//3
f 101//4 102//4 103//4
f 102//4 104//4 103//4
f 98//3 100//3 102//3
f 98//3 102//3 101//3
f 95//5 100//5 96//5
f 100//5 98//5 96//5
f 99//5 58//5 96//5
f 99//5 96//5 98//5
f 56//5 99//5 98//5
f 56//5 98//5 97//5
f 95//5 82//5 93//5
f 82//5 81//5 93//5
f 94//6 80//6 82//6
f 94//6 82//6 95//6
f 60//6 94//6 95//6
f 60//6 95//6 55//6
f 4//7 41//7 80//7
f 41//8 38//8 80//8
f 37//9 79//9 81//9
f 37//9 81//9 90//9
f 54//3 56//3 90//3
f 54//3 90//3 89//3
f 2//10 77//10 45//10
f 77//11 79//11 45//11
f 88//3 87//3 85//3
f 88//12 85//12 86//12
f 83//13 84//13 82//13
f 83//13 82//13 81//13
f 77//14 78//14 80//14
f 77//15 80//15 79//15
f 76//16 75//16 73//16
f 76//17 73//17 74//17
f 70//13 69//13 71//13
f 70//13 71//13 72//13
f 65//3 66//3 68//3
f 65//18 68//18 67//18
f 64//3 63//3 61//3
f 64//18 61//18 62//18
f 59//13 60//13 58//13
f 59//13 58//13 57//13
f 54//13 53//13 55//13
f 54//13 55//13 56//13
f 51//3 52//3 53//3
f 51//3 53//3 54//3
f 37//3 38//3 52//3
f 37//18 52//18 51//18
f 50//16 49//16 47//16
f 50//19 47//19 48//19
f 43//16 44//16 46//16
f 43//19 46//19 45//19
f 42//16 41//16 39//16
f 42//19 39//19 40//19
f 2//16 3//16 38//16
f 2//17 38//17 37//17
f 12//20 9//20 29//20
f 12//20 29//20 33//20
f 16//21 34//21 30//21
f 16//21 30//21 14//21
f 28//13 30//13 34//13
f 28//13 34//13 31//13
f 29//13 27//13 32//13
f 29//13 32//13 33//13
f 27//13 28//13 31//13
f 27//13 31//13 32//13
f 8//2 14//2 30//2
f 8//2 30//2 28//2
f 9//2 5//2 27//2
f 9//2 27//2 29//2
f 5//2 8//2 27//2
f 8//2 28//2 27//2
f 10//20 11//20 23//20
f 10//20 23//20 19//20
f 13//21 20//21 26//21
f 13//21 26//21 25//21
f 20//1 18//1 21//1
f 20//1 21//1 24//1
f 17//1 19//1 23//1
f 17//1 23//1 22//1
f 18//1 17//1 22//1
f 18//1 22//1 21//1
f 13//2 7//2 18//2
f 13//2 18//2 20//2
f 6//2 10//2 19//2
f 6//2 19//2 17//2
f 7//2 6//2 18//2
f 6//2 17//2 18//2
f 14//21 13//21 15//21
f 14//21 15//21 16//21
f 8//2 7//2 13//2
f 8//2 13//2 14//2
f 10//22 9//22 12//22
f 10//22 12//22 11//22
f 6//2 5//2 10//2
f 5//2 9//2 10//2
f 5//1 1//1 4//1
f 5//23 4//23 8//23
f 3//24 7//24 8//24
f 3//24 8//24 4//24
f 2//25 6//25 3//25
f 6//13 7//13 3//13
f 1//26 5//26 2//26
f 5//27 6//27 2//27
f 15 25
f 24 26
f 3 35
f 35 36
f 91 92
v -0.291088 -0.788500 0.970000
v -0.297591 -0.778767 0.970000
v -0.299875 -0.767287 0.970000
v -0.297591 -0.755806 0.970000
v -0.291088 -0.746073 0.970000
v -0.281355 -0.739570 0.970000
v -0.269875 -0.737287 0.970000
v -0.258394 -0.739570 0.970000
v -0.248661 -0.746073 0.970000
v -0.242158 -0.755806 0.970000
v -0.239875 -0.767287 0.970000
v -0.242158 -0.778767 0.970000
v -0.248661 -0.788500 0.970000
v -0.258394 -0.795003 0.970000
v -0.269875 -0.797287 0.970000
v -0.281355 -0.795003 0.970000
v -0.291088 -0.788500 -0.980000
v -0.297591 -0.778767 -0.980000
v -0.299875 -0.767287 -0.980000
v -0.297591 -0.755806 -0.980000
v -0.291088 -0.746074 -0.980000
v -0.281355 -0.739570 -0.980000
v -0.269875 -0.737287 -0.980000
v -0.258394 -0.739570 -0.980000
v -0.248661 -0.746074 -0.980000
v -0.242158 -0.755806 -0.980000
v -0.239875 -0.767287 -0.980000
v -0.242158 -0.778767 -0.980000
v -0.248661 -0.788500 -0.980000
v -0.258394 -0.795003 -0.980000
v -0.269875 -0.797287 -0.980000
v -0.281355 -0.795003 -0.980000
v -0.269875 -0.767287 0.970000
v -0.269875 -0.767287 -0.980000
vn -0.000002 0.000005 1.000000
vn 0.000002 0.000005 1.000000
vn -0.000001 0.000002 1.000000
vn -0.000000 0.000002 1.000000
vn 0.000001 0.000002 1.000000
vn 0.555571 0.831469 -0.000000
vn 0.555572 0.831469 -0.000000
vn 0.195092 0.980785 -0.000000
vn -0.195087 0.980786 -0.000000
vn -0.195092 0.980785 -0.000000
vn -0.555568 0.831471 -0.000000
vn -0.831468 0.555573 -0.000000
vn -0.831470 0.555569 -0.000000
vn -0.980785 0.195093 -0.000000
vn -0.980785 0.195091 -0.000000
vn -0.980786 -0.195088 0.000000
vn -0.980785 -0.195091 0.000000
vn -0.831471 -0.555568 0.000000
vn -0.831469 -0.555572 0.000000
vn -0.555574 -0.831467 0.000000
vn -0.555573 -0.831468 0.000000
vn -0.195092 -0.980785 0.000000
vn -0.195087 -0.980786 0.000000
vn 0.195092 -0.980785 0.000000
vn 0.195087 -0.980786 0.000000
vn 0.555568 -0.831471 0.000000
vn 0.555573 -0.831468 0.000000
vn 0.831468 -0.555572 0.000000
vn 0.980785 -0.195092 0.000000
vn 0.980785 -0.195089 0.000000
vn 0.980785 0.195089 -0.000000
vn 0.831471 0.555568 -0.000000
vn 0.831470 0.555570 -0.000000
usemtl (null)
s off
f 141//1 109//1 110//1
f 142//28 126//28 125//28
f 141//1 110//1 111//1
f 142//13 127//13 126//13
f 141//1 111//1 112//1
f 142//13 128//13 127//13
f 141//1 112//1 113//1
f 142//13 129//13 128//13
f 141//1 113//1 114//1
f 142//13 130//13 129//13
f 141//1 114//1 115//1
f 142//13 131//13 130//13
f 141//1 115//1 116//1
f 142//13 132//13 131//13
f 141//1 116//1 117//1
f 142//13 133//13 132//13
f 141//1 117//1 118//1
f 142//13 134//13 133//13
f 141//1 118//1 119//1
f 142//13 135//13 134//13
f 141//1 119//1 120//1
f 142//13 136//13 135//13
f 141//1 120//1 121//1
f 142//29 137//29 136//29
f 141//1 121//1 122//1
f 142//30 138//30 137//30
f 141//1 122//1 123//1
f 142//31 139//31 138//31
f 141//1 123//1 124//1
f 142//31 140//31 139//31
f 124//1 109//1 141//1
f 142//32 125//32 140//32
f 125//33 109//33 124//33
f 125//34 124//34 140//34
f 123//35 139//35 140//35
f 123//35 140//35 124//35
f 122//36 138//36 139//36
f 122//37 139//37 123//37
f 121//38 137//38 138//38
f 121//38 138//38 122//38
f 120//39 136//39 137//39
f 120//40 137//40 121//40
f 119//41 135//41 136//41
f 119//42 136//42 120//42
f 118//43 134//43 135//43
f 118//44 135//44 119//44
f 117//45 133//45 134//45
f 117//46 134//46 118//46
f 116//47 132//47 133//47
f 116//48 133//48 117//48
f 115//49 131//49 132//49
f 115//50 132//50 116//50
f 114//51 130//51 131//51
f 114//52 131//52 115//52
f 113//53 129//53 130//53
f 113//54 130//54 114//54
f 112//55 128//55 129//55
f 112//55 129//55 113//55
f 111//56 127//56 128//56
f 111//57 128//57 112//57
f 110//58 126//58 127//58
f 110//58 127//58 111//58
f 109//59 125//59 126//59
f 109//60 126//60 110//60
v -0.172217 -0.669629 0.965022
v -0.142279 -0.714435 0.965022
v -0.131766 -0.767287 0.965022
v -0.142279 -0.820139 0.965022
v -0.172217 -0.864944 0.965022
v -0.217023 -0.894883 0.965022
v -0.269875 -0.905395 0.965022
v -0.322726 -0.894883 0.965022
v -0.367532 -0.864944 0.965022
v -0.397470 -0.820139 0.965022
v -0.407983 -0.767287 0.965022
v -0.397470 -0.714435 0.965022
v -0.367532 -0.669629 0.965022
v -0.322726 -0.639691 0.965022
v -0.269875 -0.629178 0.965022
v -0.217023 -0.639691 0.965022
v -0.172217 -0.669629 1.022243
v -0.142279 -0.714435 1.022243
v -0.131766 -0.767287 1.022243
v -0.142279 -0.820139 1.022243
v -0.172217 -0.864944 1.022243
v -0.217023 -0.894883 1.022243
v -0.269875 -0.905395 1.022243
v -0.322727 -0.894882 1.022243
v -0.367532 -0.864944 1.022243
v -0.397471 -0.820138 1.022243
v -0.407983 -0.767286 1.022243
v -0.397470 -0.714434 1.022243
v -0.367532 -0.669629 1.022243
v -0.322726 -0.639691 1.022243
v -0.269874 -0.629178 1.022243
v -0.217022 -0.639691 1.022243
v -0.269875 -0.767287 0.965022
v -0.269875 -0.767287 1.022243
vn 0.555570 0.831469 -0.000001
vn 0.195091 0.980785 -0.000001
vn 0.195093 0.980785 0.000001
vn -0.195089 0.980786 -0.000001
vn -0.195087 0.980786 0.000001
vn -0.555570 0.831470 -0.000001
vn -0.555568 0.831471 0.000001
vn -0.831470 0.555570 -0.000001
vn -0.831468 0.555572 0.000001
vn -0.980785 0.195090 -0.000001
vn -0.980785 0.195093 0.000001
vn -0.980785 -0.195090 -0.000001
vn -0.980786 -0.195088 0.000001
vn -0.831470 -0.555570 -0.000001
vn -0.831471 -0.555569 0.000001
vn -0.555570 -0.831470 -0.000001
vn -0.555572 -0.831468 0.000002
vn -0.195090 -0.980785 -0.000001
vn -0.195092 -0.980785 0.000001
vn 0.195090 -0.980785 -0.000001
vn 0.195088 -0.980786 0.000001
vn 0.555570 -0.831469 -0.000001
vn 0.555569 -0.831470 0.000001
vn 0.831470 -0.555570 -0.000001
vn 0.831469 -0.555571 0.000001
vn 0.980785 -0.195090 -0.000001
vn 0.980785 -0.195092 0.000001
vn 0.980785 0.195090 -0.000001
vn 0.980785 0.195089 0.000001
vn 0.831470 0.555570 -0.000001
vn 0.831470 0.555569 0.000000
usemtl Material
s off
f 175//1 143//1 144//1
f 176//13 160//13 159//13
f 175//1 144//1 145//1
f 176//13 161//13 160//13
f 175//1 145//1 146//1
f 176//13 162//13 161//13
f 175//1 146//1 147//1
f 176//13 163//13 162//13
f 175//1 147//1 148//1
f 176//13 164//13 163//13
f 175//1 148//1 149//1
f 176//13 165//13 164//13
f 175//1 149//1 150//1
f 176//13 166//13 165//13
f 175//1 150//1 151//1
f 176//13 167//13 166//13
f 175//1 151//1 152//1
f 176//13 168//13 167//13
f 175//1 152//1 153//1
f 176//13 169//13 168//13
f 175//1 153//1 154//1
f 176//13 170//13 169//13
f 175//1 154//1 155//1
f 176//13 171//13 170//13
f 175//1 155//1 156//1
f 176//13 172//13 171//13
f 175//1 156//1 157//1
f 176//13 173//13 172//13
f 175//1 157//1 158//1
f 176//13 174//13 173//13
f 158//1 143//1 175//1
f 176//13 159//13 174//13
f 159//34 143//34 174//34
f 143//61 158//61 174//61
f 157//62 173//62 158//62
f 173//63 174//63 158//63
f 156//64 172//64 157//64
f 172//65 173//65 157//65
f 155//66 171//66 156//66
f 171//67 172//67 156//67
f 154//68 170//68 155//68
f 170//69 171//69 155//69
f 153//70 169//70 154//70
f 169//71 170//71 154//71
f 152//72 168//72 153//72
f 168//73 169//73 153//73
f 151//74 167//74 152//74
f 167//75 168//75 152//75
f 150//76 166//76 151//76
f 166//77 167//77 151//77
f 149//78 165//78 150//78
f 165//79 166//79 150//79
f 148//80 164//80 149//80
f 164//81 165//81 149//81
f 147//82 163//82 148//82
f 163//83 164//83 148//83
f 146//84 162//84 147//84
f 162//85 163//85 147//85
f 145//86 161//86 146//86
f 161//87 162//87 146//87
f 144//88 160//88 145//88
f 160//89 161//89 145//89
f 143//90 159//90 144//90
f 159//91 160//91 144//91
v -0.172217 -0.669629 -1.023183
v -0.142279 -0.714435 -1.023183
v -0.131766 -0.767287 -1.023183
v -0.142279 -0.820139 -1.023183
v -0.172217 -0.864944 -1.023183
v -0.217023 -0.894883 -1.023183
v -0.269875 -0.905396 -1.023183
v -0.322726 -0.894883 -1.023183
v -0.367532 -0.864944 -1.023183
v -0.397470 -0.820139 -1.023183
v -0.407983 -0.767287 -1.023183
v -0.397470 -0.714435 -1.023183
v -0.367532 -0.669629 -1.023183
v -0.322726 -0.639691 -1.023183
v -0.269875 -0.629178 -1.023183
v -0.217023 -0.639691 -1.023183
v -0.172217 -0.669629 -0.965963
v -0.142279 -0.714435 -0.965963
v -0.131766 -0.767287 -0.965963
v -0.142279 -0.820139 -0.965963
v -0.172217 -0.864945 -0.965963
v -0.217023 -0.894883 -0.965963
v -0.269875 -0.905396 -0.965963
v -0.322727 -0.894883 -0.965963
v -0.367532 -0.864944 -0.965963
v -0.397471 -0.820138 -0.965963
v -0.407983 -0.767286 -0.965963
v -0.397470 -0.714435 -0.965963
v -0.367532 -0.669629 -0.965963
v -0.322726 -0.639691 -0.965963
v -0.269874 -0.629178 -0.965963
v -0.217022 -0.639691 -0.965963
v -0.269875 -0.767287 -1.023183
v -0.269875 -0.767287 -0.965963
usemtl Material.001
s off
f 209//1 177//1 178//1
f 210//13 194//13 193//13
f 209//1 178//1 179//1
f 210//13 195//13 194//13
f 209//1 179//1 180//1
f 210//13 196//13 195//13
f 209//1 180//1 181//1
f 210//13 197//13 196//13
f 209//1 181//1 182//1
f 210//13 198//13 197//13
f 209//1 182//1 183//1
f 210//13 199//13 198//13
f 209//1 183//1 184//1
f 210//13 200//13 199//13
f 209//1 184//1 185//1
f 210//13 201//13 200//13
f 209//1 185//1 186//1
f 210//13 202//13 201//13
f 209//1 186//1 187//1
f 210//13 203//13 202//13
f 209//1 187//1 188//1
f 210//13 204//13 203//13
f 209//1 188//1 189//1
f 210//13 205//13 204//13
f 209//1 189//1 190//1
f 210//13 206//13 205//13
f 209//1 190//1 191//1
f 210//13 207//13 206//13
f 209//1 191//1 192//1
f 210//13 208//13 207//13
f 192//1 177//1 209//1
f 210//13 193//13 208//13
f 193//34 177//34 208//34
f 177//61 192//61 208//61
f 191//62 207//62 192//62
f 207//63 208//63 192//63
f 190//64 206//64 191//64
f 206//65 207//65 191//65
f 189//66 205//66 190//66
f 205//67 206//67 190//67
f 188//68 204//68 189//68
f 204//69 205//69 189//69
f 187//70 203//70 188//70
f 203//71 204//71 188//71
f 186//72 202//72 187//72
f 202//73 203//73 187//73
f 185//74 201//74 186//74
f 201//75 202//75 186//75
f 184//76 200//76 185//76
f 200//77 201//77 185//77
f 183//78 199//78 184//78
f 199//79 200//79 184//79
f 182//80 198//80 183//80
f 198//81 199//81 183//81
f 181//82 197//82 182//82
f 197//83 198//83 182//83
f 180//84 196//84 181//84
f 196//85 197//85 181//85
f 179//86 195//86 180//86
f 195//87 196//87 180//87
f 178//88 194//88 179//88
f 194//89 195//89 179//89
f 177//90 193//90 178//90
f 193//91 194//91 178//91
v 0.546008 -0.757385 0.162733
v 0.539505 -0.747652 0.162733
v 0.537221 -0.736172 0.162733
v 0.539505 -0.724691 0.162733
v 0.546008 -0.714958 0.162733
v 0.555741 -0.708455 0.162733
v 0.567221 -0.706172 0.162733
v 0.578702 -0.708455 0.162733
v 0.588435 -0.714958 0.162733
v 0.594938 -0.724691 0.162733
v 0.597221 -0.736172 0.162733
v 0.594938 -0.747652 0.162733
v 0.588435 -0.757385 0.162733
v 0.578702 -0.763888 0.162733
v 0.567221 -0.766172 0.162392
v 0.555741 -0.763888 0.162733
v 0.546008 -0.757385 -0.179298
v 0.539505 -0.747652 -0.179298
v 0.537221 -0.736172 -0.179298
v 0.539505 -0.724691 -0.179298
v 0.546008 -0.714958 -0.179298
v 0.555741 -0.708455 -0.179298
v 0.567221 -0.706172 -0.179298
v 0.578702 -0.708455 -0.179298
v 0.588435 -0.714959 -0.179298
v 0.594938 -0.724691 -0.179298
v 0.597221 -0.736172 -0.179298
v 0.594938 -0.747652 -0.179298
v 0.588435 -0.757385 -0.179298
v 0.578702 -0.763888 -0.179298
v 0.567221 -0.766172 -0.179298
v 0.555741 -0.763888 -0.179298
v 0.567221 -0.736172 0.162733
v 0.567221 -0.736172 -0.179298
vn -0.000000 -0.000001 -1.000000
vn 0.027407 0.011352 -0.999560
vn -0.027407 0.011352 -0.999560
vn 0.555568 0.831471 0.000000
vn 0.195098 0.980784 -0.000000
vn -0.555574 0.831467 0.000000
vn -0.831469 0.555572 0.000000
vn -0.831467 0.555574 -0.000000
vn -0.980785 0.195092 -0.000000
vn -0.980786 0.195087 0.000000
vn -0.980786 -0.195087 0.000000
vn -0.555571 -0.831469 0.000000
vn 0.831469 -0.555572 0.000000
vn 0.831471 -0.555568 0.000000
vn 0.980786 -0.195087 0.000000
vn 0.980786 0.195087 0.000000
vn 0.831469 0.555571 0.000000
usemtl (null)
s off
f 243//1 211//1 212//1
f 244//13 228//13 227//13
f 243//1 212//1 213//1
f 244//13 229//13 228//13
f 243//1 213//1 214//1
f 244//13 230//13 229//13
f 243//92 214//92 215//92
f 244//13 231//13 230//13
f 243//1 215//1 216//1
f 244//13 232//13 231//13
f 243//1 216//1 217//1
f 244//13 233//13 232//13
f 243//1 217//1 218//1
f 244//13 234//13 233//13
f 243//1 218//1 219//1
f 244//13 235//13 234//13
f 243//92 219//92 220//92
f 244//13 236//13 235//13
f 243//1 220//1 221//1
f 244//13 237//13 236//13
f 243//1 221//1 222//1
f 244//13 238//13 237//13
f 243//1 222//1 223//1
f 244//13 239//13 238//13
f 243//1 223//1 224//1
f 244//13 240//13 239//13
f 243//93 224//93 225//93
f 244//13 241//13 240//13
f 243//94 225//94 226//94
f 244//13 242//13 241//13
f 226//1 211//1 243//1
f 244//13 227//13 242//13
f 227//95 211//95 226//95
f 227//33 226//33 242//33
f 225//96 241//96 242//96
f 225//35 242//35 226//35
f 224//36 240//36 225//36
f 240//36 241//36 225//36
f 223//38 239//38 240//38
f 223//97 240//97 224//97
f 222//98 238//98 239//98
f 222//99 239//99 223//99
f 221//100 237//100 238//100
f 221//101 238//101 222//101
f 220//102 236//102 237//102
f 220//102 237//102 221//102
f 219//45 235//45 236//45
f 219//46 236//46 220//46
f 218//103 234//103 235//103
f 218//103 235//103 219//103
f 217//49 233//49 234//49
f 217//49 234//49 218//49
f 216//52 232//52 233//52
f 216//51 233//51 217//51
f 215//53 231//53 232//53
f 215//53 232//53 216//53
f 214//104 230//104 231//104
f 214//105 231//105 215//105
f 213//106 229//106 230//106
f 213//106 230//106 214//106
f 212//107 228//107 229//107
f 212//107 229//107 213//107
f 211//108 227//108 228//108
f 211//108 228//108 212//108
v 0.685811 -0.617582 -0.034300
v 0.722166 -0.671991 -0.034300
v 0.734932 -0.736172 -0.034300
v 0.722166 -0.800352 -0.034300
v 0.685811 -0.854761 -0.034300
v 0.631402 -0.891116 -0.034300
v 0.567221 -0.903883 -0.034300
v 0.503041 -0.891116 -0.034300
v 0.448632 -0.854761 -0.034300
v 0.412277 -0.800352 -0.034300
v 0.399510 -0.736172 -0.034300
v 0.412277 -0.671991 -0.034300
v 0.448632 -0.617582 -0.034300
v 0.503041 -0.581227 -0.034300
v 0.567222 -0.568461 -0.034300
v 0.631402 -0.581227 -0.034300
v 0.685811 -0.617582 0.017734
v 0.722166 -0.671992 0.017734
v 0.734932 -0.736172 0.017734
v 0.722166 -0.800352 0.017734
v 0.685811 -0.854761 0.017734
v 0.631401 -0.891117 0.017734
v 0.567221 -0.903883 0.017734
v 0.503041 -0.891116 0.017734
v 0.448632 -0.854761 0.017734
v 0.412276 -0.800352 0.017734
v 0.399510 -0.736171 0.017734
v 0.412277 -0.671991 0.017734
v 0.448632 -0.617582 0.017734
v 0.503042 -0.581227 0.017734
v 0.567222 -0.568461 0.017734
v 0.631402 -0.581227 0.017734
v 0.567221 -0.736172 -0.034300
v 0.567221 -0.736172 0.017734
vn 0.555572 0.831468 0.000001
vn 0.555571 0.831469 -0.000002
vn 0.195091 0.980785 -0.000002
vn 0.195094 0.980785 0.000002
vn -0.195090 0.980785 -0.000002
vn -0.195087 0.980786 0.000002
vn -0.555570 0.831470 -0.000002
vn -0.831470 0.555570 -0.000002
vn -0.831468 0.555573 0.000002
vn -0.980785 0.195091 -0.000002
vn -0.980786 -0.195088 0.000002
vn -0.831469 -0.555571 -0.000002
vn -0.831471 -0.555568 0.000002
vn -0.195093 -0.980785 0.000002
vn 0.195091 -0.980785 -0.000001
vn 0.195089 -0.980785 0.000001
vn 0.555570 -0.831470 -0.000000
vn 0.555569 -0.831471 0.000001
vn 0.831470 -0.555570 -0.000002
vn 0.831468 -0.555572 0.000002
vn 0.980785 -0.195091 0.000000
vn 0.980785 0.195090 -0.000002
vn 0.980786 0.195088 0.000001
usemtl Material.002
s off
f 277//1 245//1 246//1
f 278//13 262//13 261//13
f 277//1 246//1 247//1
f 278//13 263//13 262//13
f 277//1 247//1 248//1
f 278//13 264//13 263//13
f 277//1 248//1 249//1
f 278//13 265//13 264//13
f 277//1 249//1 250//1
f 278//13 266//13 265//13
f 277//1 250//1 251//1
f 278//13 267//13 266//13
f 277//1 251//1 252//1
f 278//13 268//13 267//13
f 277//1 252//1 253//1
f 278//13 269//13 268//13
f 277//1 253//1 254//1
f 278//13 270//13 269//13
f 277//1 254//1 255//1
f 278//13 271//13 270//13
f 277//1 255//1 256//1
f 278//13 272//13 271//13
f 277//1 256//1 257//1
f 278//13 273//13 272//13
f 277//1 257//1 258//1
f 278//13 274//13 273//13
f 277//1 258//1 259//1
f 278//13 275//13 274//13
f 277//1 259//1 260//1
f 278//13 276//13 275//13
f 260//1 245//1 277//1
f 278//13 261//13 276//13
f 261//109 245//109 276//109
f 245//110 260//110 276//110
f 259//111 275//111 260//111
f 275//112 276//112 260//112
f 258//113 274//113 259//113
f 274//114 275//114 259//114
f 257//115 273//115 258//115
f 273//67 274//67 258//67
f 256//116 272//116 257//116
f 272//117 273//117 257//117
f 255//118 271//118 256//118
f 271//71 272//71 256//71
f 254//72 270//72 255//72
f 270//119 271//119 255//119
f 253//120 269//120 254//120
f 269//121 270//121 254//121
f 252//76 268//76 253//76
f 268//77 269//77 253//77
f 251//78 267//78 252//78
f 267//122 268//122 252//122
f 250//123 266//123 251//123
f 266//124 267//124 251//124
f 249//125 265//125 250//125
f 265//126 266//126 250//126
f 248//127 264//127 249//127
f 264//128 265//128 249//128
f 247//86 263//86 248//86
f 263//129 264//129 248//129
f 246//130 262//130 247//130
f 262//131 263//131 247//131
f 245//90 261//90 246//90
f 261//91 262//91 246//91
