# Blender3D v249 OBJ File: racksSingle61.blend
# www.blender3d.org
mtllib racksSingle61.mtl
v 0.239410 -0.050900 -0.304761
v 0.239410 -0.050900 0.305239
v -0.240590 -0.050900 0.305239
v -0.240590 -0.050900 -0.304761
v 0.239410 4.049099 -0.304761
v 0.239410 4.049100 0.305239
v -0.240590 4.049100 0.305239
v -0.240590 4.049099 -0.304761
vt 0.000000 0.000000
vt 1.000000 0.000000
vt 1.000000 1.000000
vt 0.000000 1.000000
vn 0.000000 -0.000000 -1.000000
vn -1.000000 -0.000000 -0.000000
vn -0.000000 -0.000000 1.000000
vn -0.000001 0.000000 1.000000
vn 1.000000 -0.000000 0.000000
vn 0.000000 1.000000 -0.000001
vn -0.000000 -1.000000 0.000000
usemtl Grey
s off
f 5/1/1 1/2/1 4/3/1
f 5/1/1 4/3/1 8/4/1
f 3/1/2 7/2/2 8/3/2
f 3/1/2 8/3/2 4/4/2
f 2/1/3 6/2/3 3/4/3
f 6/2/4 7/3/4 3/4/4
f 1/1/5 5/2/5 2/4/5
f 5/2/5 6/3/5 2/4/5
f 5/1/6 8/2/6 6/4/6
f 8/2/6 7/3/6 6/4/6
f 1/1/7 2/2/7 3/3/7
f 1/1/7 3/3/7 4/4/7
