# Blender3D v249 OBJ File: racksSingle206.blend
# www.blender3d.org
mtllib racksSingle206.mtl
v 0.239410 1.999100 -1.029760
v 0.239410 1.999100 1.030239
v -0.240590 1.999100 1.030238
v -0.240590 1.999100 -1.029761
v 0.239410 4.049099 -1.029760
v 0.239410 4.049100 1.030239
v -0.240590 4.049100 1.030238
v -0.240590 4.049099 -1.029761
vt 0.000000 0.000000
vt 1.000000 0.000000
vt 0.000000 1.000000
vt 1.000000 1.000000
vn 0.000001 0.000000 -1.000000
vn -1.000000 -0.000000 -0.000000
vn -0.000000 -0.000000 1.000000
vn -0.000002 0.000000 1.000000
vn 1.000000 -0.000000 0.000000
vn 0.000000 1.000000 -0.000000
vn 0.000000 -1.000000 0.000000
usemtl Grey
s off
f 5/1/1 1/2/1 8/3/1
f 1/2/1 4/4/1 8/3/1
f 3/1/2 7/2/2 4/3/2
f 7/2/2 8/4/2 4/3/2
f 2/1/3 6/2/3 3/3/3
f 6/2/4 7/4/4 3/3/4
f 1/1/5 5/2/5 2/3/5
f 5/2/5 6/4/5 2/3/5
f 5/1/6 8/2/6 6/3/6
f 8/2/6 7/4/6 6/3/6
f 1/1/7 2/2/7 3/4/7
f 1/1/7 3/4/7 4/3/7
