# Blender3D v249 OBJ File: palletSlave.blend
# www.blender3d.org
mtllib palletSlave.mtl
v 0.185867 0.047834 -0.163051
v 0.185867 0.047834 0.160960
v -0.181942 0.047834 0.160960
v -0.181942 0.047834 -0.163051
v 0.185867 0.059367 -0.163051
v 0.185867 0.059367 0.160960
v -0.181942 0.059367 0.160960
v -0.181942 0.059367 -0.163051
v 0.151579 0.047834 0.160960
v -0.144797 0.047834 0.160960
v 0.151579 0.047834 -0.163051
v -0.144796 0.047834 -0.163051
v 0.151579 0.059367 0.160960
v -0.144797 0.059367 0.160960
v 0.151579 0.059367 -0.163051
v -0.144796 0.059367 -0.163051
v 0.102403 0.047834 0.160960
v 0.073737 0.047834 0.160960
v 0.017679 0.047834 0.160960
v -0.010896 0.047834 0.160960
v -0.066998 0.047834 0.160960
v -0.095577 0.047834 0.160960
v 0.102403 0.047834 -0.163051
v 0.073737 0.047834 -0.163051
v 0.017679 0.047834 -0.163051
v -0.010896 0.047834 -0.163051
v -0.066998 0.047834 -0.163051
v -0.095577 0.047834 -0.163051
v 0.102403 0.059367 0.160960
v 0.073737 0.059367 0.160960
v 0.017679 0.059367 0.160960
v -0.010896 0.059367 0.160960
v -0.066998 0.059367 0.160960
v -0.095577 0.059367 0.160960
v 0.102403 0.059367 -0.163051
v 0.073737 0.059367 -0.163051
v 0.017679 0.059367 -0.163051
v -0.010896 0.059367 -0.163051
v -0.066998 0.059367 -0.163051
v -0.095577 0.059367 -0.163051
v -0.181942 0.047834 0.149427
v 0.185867 0.047835 0.149427
v -0.181942 0.047834 0.160960
v 0.185867 0.047835 0.160960
v 0.185867 0.013547 0.149427
v -0.181942 0.013547 0.149427
v 0.185867 0.013547 0.160960
v -0.181942 0.013547 0.160960
v -0.181942 0.013547 0.003603
v 0.185867 0.013547 0.003603
v -0.181942 0.013547 -0.007930
v 0.185867 0.013547 -0.007930
v 0.185867 0.047834 0.003603
v -0.181942 0.047834 0.003603
v 0.185867 0.047834 -0.007930
v -0.181942 0.047834 -0.007930
v -0.181942 0.047834 -0.163051
v 0.185867 0.047834 -0.163051
v -0.181942 0.047834 -0.151519
v 0.185867 0.047834 -0.151519
v 0.185867 0.013547 -0.163051
v -0.181942 0.013547 -0.163051
v 0.185867 0.013547 -0.151519
v -0.181942 0.013547 -0.151519
v -0.095576 0.013547 -0.163051
v -0.066998 0.013547 -0.163051
v -0.010896 0.013547 -0.163051
v 0.017679 0.013547 -0.163051
v 0.073737 0.013547 -0.163051
v 0.102404 0.013547 -0.163051
v -0.095576 0.013547 0.160960
v -0.066998 0.013547 0.160960
v -0.010896 0.013547 0.160960
v 0.017679 0.013547 0.160960
v 0.073737 0.013547 0.160960
v 0.102403 0.013547 0.160960
v -0.095576 0.002014 -0.163052
v -0.066998 0.002014 -0.163052
v -0.010896 0.002014 -0.163052
v 0.017679 0.002014 -0.163051
v 0.073737 0.002014 -0.163051
v 0.102404 0.002014 -0.163051
v -0.095576 0.002014 0.160960
v -0.066998 0.002014 0.160960
v -0.010896 0.002014 0.160960
v 0.017679 0.002014 0.160960
v 0.073737 0.002014 0.160960
v 0.102404 0.002014 0.160960
v -0.144796 0.013547 -0.163051
v 0.151579 0.013547 -0.163051
v -0.144796 0.013547 0.160960
v 0.151579 0.013547 0.160960
v -0.144796 0.002014 -0.163052
v 0.151579 0.002014 -0.163051
v -0.144796 0.002014 0.160960
v 0.151579 0.002014 0.160960
v -0.181942 0.013547 -0.163051
v -0.181942 0.013547 0.160960
v 0.185867 0.013547 0.160960
v 0.185867 0.013547 -0.163051
v -0.181942 0.002014 -0.163052
v -0.181942 0.002014 0.160960
v 0.185867 0.002014 0.160960
v 0.185867 0.002014 -0.163051
vn 1.000000 -0.000008 0.000000
vn 1.000000 0.000010 0.000001
vn -1.000000 -0.000004 -0.000000
vn -1.000000 -0.000003 -0.000000
vn -0.000000 -1.000000 0.000000
vn 0.000000 1.000000 -0.000000
vn -0.000002 -0.000006 1.000000
vn 0.000000 -0.000012 1.000000
vn -0.000002 0.000004 1.000000
vn -0.000000 -0.000001 1.000000
vn 0.000001 0.000008 -1.000000
vn 0.000001 0.000009 -1.000000
vn 0.000001 0.000006 -1.000000
vn -0.000001 -0.000004 1.000000
vn 0.000000 -0.000005 1.000000
vn 0.000000 -0.000004 1.000000
vn -0.000001 -0.000003 1.000000
vn -0.000001 -0.000001 1.000000
vn 0.000000 -0.000003 1.000000
vn 0.000000 0.000008 -1.000000
vn 1.000000 -0.000000 0.000000
vn 1.000000 0.000008 0.000000
vn -1.000000 -0.000006 -0.000000
vn -1.000000 0.000000 -0.000000
vn -1.000000 -0.000005 -0.000000
vn -1.000000 0.000001 -0.000000
vn -1.000000 0.000002 -0.000000
vn -1.000000 -0.000009 -0.000001
vn -1.000000 0.000004 -0.000000
vn 1.000000 -0.000001 0.000000
vn 1.000000 0.000005 0.000000
vn 1.000000 -0.000002 0.000000
vn 0.000000 -1.000000 0.000007
vn 0.000001 -1.000000 -0.000011
vn 0.000000 0.000000 1.000000
vn -0.000000 -0.000000 -1.000000
vn 1.000000 0.000002 0.000005
vn 1.000000 0.000000 0.000010
vn -1.000000 -0.000001 -0.000008
vn -0.000000 1.000000 0.000011
vn 1.000000 0.000006 0.000000
vn 0.000000 0.000006 -1.000000
usemtl Material
s off
f 104//1 100//1 103//1
f 100//2 99//2 103//2
f 102//3 98//3 97//3
f 102//4 97//4 101//4
f 94//5 104//5 96//5
f 104//5 103//5 96//5
f 95//5 102//5 93//5
f 102//5 101//5 93//5
f 100//6 90//6 92//6
f 100//6 92//6 99//6
f 89//6 97//6 98//6
f 89//6 98//6 91//6
f 99//7 92//7 96//7
f 99//8 96//8 103//8
f 91//9 98//9 102//9
f 91//10 102//10 95//10
f 104//11 94//11 90//11
f 104//12 90//12 100//12
f 93//13 101//13 97//13
f 93//11 97//11 89//11
f 88//5 87//5 81//5
f 88//5 81//5 82//5
f 86//5 85//5 80//5
f 85//5 79//5 80//5
f 84//5 83//5 78//5
f 83//5 77//5 78//5
f 70//6 69//6 75//6
f 70//6 75//6 76//6
f 68//6 67//6 73//6
f 68//6 73//6 74//6
f 66//6 65//6 71//6
f 66//6 71//6 72//6
f 76//14 75//14 87//14
f 76//15 87//15 88//15
f 74//16 73//16 85//16
f 74//17 85//17 86//17
f 72//18 71//18 83//18
f 72//19 83//19 84//19
f 82//11 81//11 69//11
f 82//11 69//11 70//11
f 80//11 79//11 67//11
f 80//11 67//11 68//11
f 78//20 77//20 65//20
f 78//20 65//20 66//20
f 95//21 93//21 89//21
f 95//22 89//22 91//22
f 83//23 71//23 65//23
f 83//24 65//24 77//24
f 85//25 73//25 67//25
f 85//26 67//26 79//26
f 87//23 75//23 69//23
f 87//27 69//27 81//27
f 96//28 92//28 90//28
f 96//29 90//29 94//29
f 78//30 66//30 84//30
f 66//31 72//31 84//31
f 86//30 80//30 68//30
f 86//31 68//31 74//31
f 88//32 82//32 70//32
f 88//31 70//31 76//31
f 64//33 62//33 63//33
f 62//34 61//34 63//34
f 63//35 60//35 59//35
f 63//35 59//35 64//35
f 62//36 57//36 61//36
f 57//36 58//36 61//36
f 61//37 58//37 60//37
f 61//38 60//38 63//38
f 64//39 59//39 57//39
f 64//39 57//39 62//39
f 60//40 58//40 57//40
f 60//6 57//6 59//6
f 53//40 55//40 56//40
f 53//6 56//6 54//6
f 49//39 54//39 56//39
f 49//39 56//39 51//39
f 52//37 55//37 53//37
f 52//38 53//38 50//38
f 51//36 56//36 52//36
f 56//36 55//36 52//36
f 50//35 53//35 54//35
f 50//35 54//35 49//35
f 49//33 51//33 50//33
f 51//34 52//34 50//34
f 48//33 46//33 47//33
f 46//34 45//34 47//34
f 47//35 44//35 43//35
f 47//35 43//35 48//35
f 46//36 41//36 45//36
f 41//36 42//36 45//36
f 45//37 42//37 44//37
f 45//38 44//38 47//38
f 48//39 43//39 41//39
f 48//39 41//39 46//39
f 44//40 42//40 41//40
f 44//6 41//6 43//6
f 17//32 23//32 35//32
f 17//41 35//41 29//41
f 19//30 25//30 37//30
f 19//41 37//41 31//41
f 27//30 39//30 21//30
f 39//31 33//31 21//31
f 9//28 13//28 15//28
f 9//29 15//29 11//29
f 18//23 30//23 36//23
f 18//26 36//26 24//26
f 20//25 32//25 38//25
f 20//26 38//26 26//26
f 22//23 34//23 40//23
f 22//24 40//24 28//24
f 10//21 12//21 16//21
f 10//22 16//22 14//22
f 27//12 28//12 40//12
f 27//20 40//20 39//20
f 25//11 26//11 38//11
f 25//11 38//11 37//11
f 23//11 24//11 36//11
f 23//11 36//11 35//11
f 33//18 34//18 22//18
f 33//19 22//19 21//19
f 31//16 32//16 20//16
f 31//17 20//17 19//17
f 29//14 30//14 18//14
f 29//15 18//15 17//15
f 39//6 40//6 34//6
f 39//6 34//6 33//6
f 37//6 38//6 32//6
f 37//6 32//6 31//6
f 35//6 36//6 30//6
f 35//6 30//6 29//6
f 21//5 22//5 27//5
f 22//5 28//5 27//5
f 19//5 20//5 25//5
f 20//5 26//5 25//5
f 17//5 18//5 24//5
f 17//5 24//5 23//5
f 12//42 4//42 8//42
f 12//12 8//12 16//12
f 1//11 11//11 15//11
f 1//12 15//12 5//12
f 14//9 7//9 3//9
f 14//35 3//35 10//35
f 6//7 13//7 9//7
f 6//8 9//8 2//8
f 16//6 8//6 7//6
f 16//6 7//6 14//6
f 5//6 15//6 13//6
f 5//6 13//6 6//6
f 10//5 3//5 12//5
f 3//5 4//5 12//5
f 11//5 1//5 9//5
f 1//5 2//5 9//5
f 3//4 7//4 8//4
f 3//3 8//3 4//3
f 1//1 5//1 2//1
f 5//2 6//2 2//2
